<?xml version="1.0" encoding="utf-8"?>
<!-- Generator: Adobe Illustrator 25.4.1, SVG Export Plug-In . SVG Version: 6.00 Build 0)  -->
<svg version="1.1" id="Capa_1" xmlns="http://www.w3.org/2000/svg" xmlns:xlink="http://www.w3.org/1999/xlink" x="0px" y="0px"
	 viewBox="0 0 512 512" style="enable-background:new 0 0 512 512;" xml:space="preserve">
<style type="text/css">
	.st0{fill:#FFFFFF;}
</style>
<g>
	<path class="st0" d="M467.9,315.6c0,35.5,0.3,69.3-0.4,103.2c-0.1,4.2-4.7,9.9-8.8,12.1c-81.5,43.8-168,66.3-261.1,59
		C142.3,485.5,89.9,471,40,446.5c-10.9-5.3-15.1-11.8-14.6-24.1c1.1-25.9,0.8-51.8,0.1-77.7c-0.3-11.7,3.2-18,15.4-16.4
		c29.8,3.8,60.2,5.3,89.2,12.4c88.1,21.8,174.3,21.2,259.2-13.6C413.5,317.3,438.5,310.7,467.9,315.6z"/>
	<path class="st0" d="M90.6,319.6c8.6-46.4,50.4-79.1,98.4-75.9c4.7,0.3,9.9,4,13.6,7.5c31,29.1,60.5,29,91.3,0.9
		c5.3-4.8,15.6-8.3,22.1-6.7c21,5.2,41.3,13.1,61.8,19.9c-0.2,2.4-0.4,4.8-0.6,7.1c-9,4.2-17.7,9.4-27.1,12.2
		c-4.4,1.3-11.3-0.5-15-3.5c-10.2-8.3-21.8-12.5-31.8-3.9c-6.8,5.9-13.9,18.4-12.1,25.7c2.1,8.5,12.7,18,21.7,21.1
		c12.3,4.2,21.5-4.8,27.7-16.2c2.8-5.1,7.8-9.7,12.9-12.6c9.6-5.4,20-9.4,32.7-15.3c4,10.4,8,20.8,11.9,31
		C295.6,360.7,193.3,350,90.6,319.6z"/>
	<path class="st0" d="M189.4,236.4c-21.4-2.9-39.6-4-57-8.5c-4.5-1.2-8.5-12.6-8.9-19.6c-1.7-31.4-2.6-62.8-2.5-94.2
		c0-17.8,3.6-35.6,3.5-53.4c-0.1-15.1,8.8-19.2,20.4-19.9c43.6-2.6,87.3-5.2,130.9-6.2c19.6-0.4,39.2,4,58.9,4.6
		c14.3,0.4,17.7,6.8,16.8,19.7c-0.9,13.5,0.1,27.1-0.2,40.7c-0.3,14.4-1.1,28.6,14.8,36.8c2.5,1.3,3.8,7.3,3.6,11
		c-1.4,26.4-3.3,52.7-5.3,81.4c-19.3,2.3-37,4.4-51.1,6.1c7.1-39.9,16.3-76.9,19.6-114.3c2.8-31.8-16.5-56.4-46-66.3
		c-31.9-10.7-63-12.1-89,14.7c-2.1,2.2-4.1,4.7-6.6,6.2c-34.9,20.7-43.1,38.3-31.9,77.3C167.1,178.8,177.9,204.4,189.4,236.4z"/>
	<path class="st0" d="M203.7,136.7c18.4,17,40.8,18,63.9,17.9c32.5-0.3,49.3,23,39.5,53.7c-2,6.4-4.6,12.8-7.9,18.6
		c-11.1,19.5-25.4,35-50,35.4c-25.5,0.3-41.7-14.9-51.5-35.7c-12.6-26.8-23.5-55.1-1.5-83.1C198,141.1,200.6,139.4,203.7,136.7z"/>
	<path class="st0" d="M316.8,173.1c-15.1-30.5-40.6-29.5-66.5-29.5c-31.2,0-50.5-18.5-50.7-46.5c-0.1-17.7,8.5-29,24.8-34.8
		c61.8-21.8,109.5,22.2,97.5,90C321,158,319.2,163.6,316.8,173.1z"/>
	<path class="st0" d="M361.7,77.2c27.9,10.8,31.7-11.3,42.4-32.6c5.6,16.9,8.1,28.7,13.4,39.1c3.7,7.4,11,13,16.7,19.5
		c6-5.4,14.9-9.6,17.5-16.3c7-17.7,20.7-7.9,34.4-11.3c0,13.9,1.4,26.8-0.7,39c-0.8,4.7-9.7,11.2-15.1,11.4
		c-30.8,1.1-61.7,0.5-92.5,0.6c-10.5,0-16.2-4.8-16.1-15.6C361.7,101.2,361.7,91.4,361.7,77.2z"/>
	<path class="st0" d="M486.2,67.5c-27.1-7.6-43.8,0.7-49.7,28.4c-1.7-0.9-3.4-1.9-5.1-2.8c-3-9.5-5-19.5-9.4-28.3
		c-4.4-8.7-11.2-16.2-16.9-24.3c-6.9,6.8-14,13.5-20.8,20.5c-1.6,1.7-2.3,4.3-3.7,7c-5.2,0-10.6,0-18.9,0c0-11.8-1.5-23.4,0.7-34.3
		c1-5,9.1-12,14.2-12.2c31.3-1.1,62.7-0.5,94-0.6c10.8,0,15.8,5,15.6,15.7C486.1,45.7,486.2,54.7,486.2,67.5z"/>
	<path class="st0" d="M187.2,88.8c3.1,14,9.9,27.7,7.5,39.6c-2.2,11.2-14.1,20.4-21.5,30.3C159.3,126.8,164.3,100.9,187.2,88.8z"/>
	<path class="st0" d="M432.7,137c13.4,47.6-8.2,112.4-43.3,134.2c11.6-22.8,25-42.7,32-64.7C428.5,184.3,429.2,160.2,432.7,137z"/>
	<path class="st0" d="M337.9,299.4c-10.4,7.1-17.3,15.1-21.7,14c-6.2-1.6-10.7-10.1-15.9-15.6c5.4-4.7,10.5-12.7,16.3-13.2
		C321.8,284.1,327.7,291.9,337.9,299.4z"/>
</g>
</svg>
