<?xml version="1.0" encoding="utf-8"?>
<!-- Generator: Adobe Illustrator 25.4.1, SVG Export Plug-In . SVG Version: 6.00 Build 0)  -->
<svg version="1.1" id="Capa_1" xmlns="http://www.w3.org/2000/svg" xmlns:xlink="http://www.w3.org/1999/xlink" x="0px" y="0px"
	 viewBox="0 0 512 512" style="enable-background:new 0 0 512 512;" xml:space="preserve">
<style type="text/css">
	.st0{fill:#FFFFFF;}
</style>
<g>
	<path class="st0" d="M49.8,476.7c-6.1-5.4-10-8.8-14.6-12.8c11.1-11,21.5-20.4,30.8-30.9c3.8-4.2,6.4-10.4,7.2-16.1
		c2.6-17.1,3.6-34.4,6.5-51.4c1-6,4.8-12.3,9.1-16.7c24.1-24.5,48-49.1,73.3-72.4c22.9-21.2,27.1-45.2,15.2-72.8
		c-3.4-7.9-3.1-14.2,2.4-20.7c3.2-3.7,6.4-7.6,8.5-12c7.1-14.8,18.9-15.8,32.9-12.8c27.1,5.7,49.6,20,69.8,38
		c24.3,21.7,45.7,45.8,57.2,77.2c1.1,3.1,2.2,6.2,3,9.3c5.9,23.9,4.1,28.4-16.2,42c-1.6,1.1-3.5,1.9-4.9,3.3
		c-9.2,8.7-18.4,8.9-30.1,3.3c-22.2-10.5-41.9-4.2-58.9,12.6c-26.1,25.7-51.9,51.7-78.6,76.7c-6.3,5.9-15.3,10.2-23.7,12
		c-14,2.9-28.5,2.8-42.7,4.8c-5.1,0.7-10.9,2.8-14.5,6.2C70.5,453.9,60.6,465.2,49.8,476.7z M201.6,228.3
		c-0.3,25.7-8.9,42.1-22.9,56c-24.1,24-48.2,48-72.8,71.5c-6.9,6.6-10.4,14-11.5,23c-1.3,10.7-2.2,21.4-3.5,32.1
		c-0.8,6.5,2.2,9.2,8.4,8.7c10.7-0.9,21.7-1,32.1-3.3c7.2-1.6,15.1-4.8,20.4-9.8c25.1-23.8,49.6-48.4,74-73
		c23.2-23.4,49.6-31.8,81.1-18.9c2.7,1.1,6.6,1.6,9.2,0.5c20-8.2,23-14.9,15.7-35.3c-2.3-6.4-5.1-12.8-8.6-18.6
		c-18.9-31.5-44.2-56.7-76.1-74.7c-9.2-5.2-19.8-8.5-30.2-11c-11.6-2.8-25.3,14.3-22.1,25.9C198,212,200.3,222.8,201.6,228.3z"/>
	<path class="st0" d="M476.8,187c-2,2.1-4.4,6.5-7.2,6.7c-3.3,0.3-8.3-2.1-10.1-4.9c-2.8-4.6-3-10.7-5.2-15.7
		c-25.4-58.5-66.6-100-128.2-119.5c-6-1.9-11.8-4.1-9.7-11.9c2.1-7.8,8.4-6.8,14.4-5.3c33.4,8.1,60.7,26.8,85.3,50
		c25.1,23.6,45.2,50.7,56.3,83.8C474.2,175,475.1,180.2,476.8,187z"/>
	<path class="st0" d="M312.5,84.7c4.3,1.3,6.9,1.8,9.2,2.9c47.2,20.7,81.9,54,101.4,102.3c1.1,2.7,2.9,6.3,1.9,8.3
		c-1.7,3.4-5.4,8.1-8.1,8c-3.4-0.2-8.4-3.9-9.7-7.2c-12.8-33.3-35.1-58.7-64.3-78.2c-9.9-6.7-21.5-11-31.7-17.4
		c-3.1-1.9-5.9-7-5.8-10.6C305.5,89.7,310.2,87,312.5,84.7z"/>
	<path class="st0" d="M302.8,134.9c3.8,1.6,6.3,2.3,8.6,3.5c26.5,13.8,46.7,34,60.6,60.6c3.1,5.9,5.1,12.1-2.3,16.1
		c-7.4,4-11.2-1.1-14.4-7.1c-12.3-23.1-30.5-40.3-53-53.5c-3.5-2.1-6-7.8-6.6-12.1C295.5,140.1,300.5,137.2,302.8,134.9z"/>
	<path class="st0" d="M192,327.1c-1.9-1.4-5.6-2.7-6.6-5.1c-1.2-2.8-1.4-7.7,0.3-9.7c6.8-7.8,14.2-15.3,22.1-21.9
		c2.1-1.8,8.1-1.6,10.4,0.2c2.3,1.7,4.1,8.3,2.8,9.8c-7.8,9-16.6,17.1-25.1,25.5C195.4,326.5,194.2,326.4,192,327.1z"/>
</g>
</svg>
