<?xml version="1.0" encoding="utf-8"?>
<!-- Generator: Adobe Illustrator 25.4.1, SVG Export Plug-In . SVG Version: 6.00 Build 0)  -->
<svg version="1.1" id="Capa_1" xmlns="http://www.w3.org/2000/svg" xmlns:xlink="http://www.w3.org/1999/xlink" x="0px" y="0px"
	 viewBox="0 0 512 512" style="enable-background:new 0 0 512 512;" xml:space="preserve">
<style type="text/css">
	.st0{fill:#FFFFFF;}
</style>
<g>
	<g>
		<path class="st0" d="M50.9,331.5H34.6c0,72.4,58.9,131.2,131.2,131.2v-16.4C102.4,446.4,50.9,394.9,50.9,331.5z"/>
	</g>
</g>
<path class="st0" d="M196.9,485.6c0-15,0-29,0-43.7c-2.8,0-5.3,0-7.8,0c-52.9,0-105.8,0-158.7,0c-9.2,0-10-0.8-10-10.2
	c0-80.9,0-161.8,0-242.7c0-9.6,0.7-10.3,10.5-10.3c14.1,0,28.2,0,43.1,0c0-2.2,0-4,0-5.8c-0.4-25.1,15.4-46.1,39.8-51.6
	c4.5-1,5.7-2.7,5.6-7c-0.3-14.5-0.3-29,5.3-42.9c11.6-28.6,38.8-47.8,69.7-47.9c60.1-0.2,120.1-0.2,180.2,0
	c35.1,0.1,62.2,28.3,62.3,64.5c0.1,27.8,0,55.6,0,83.4c0,2.2,0,4.5,0,7.3c16.4,0,31.9,0,47.5,0c10.2,0,10.7,0.5,10.7,10.8
	c0,80.7,0,161.4,0,242.1c0,9.6-0.7,10.3-10.4,10.3c-52.7,0-105.4,0-158,0c-2.5,0-5,0-7.9,0c0,14.6,0,28.6,0,43.7c7,0,14.1,0,21.2,0
	c3.8,0,7.7,0.1,7.8,5.1c0.2,5.5-3.9,5.6-8,5.6c-54.6,0-109.1,0-163.7,0c-3.9,0-8.2,0.1-8.1-5.4c0.1-5.4,4.4-5.3,8.3-5.3
	C182.8,485.7,189.5,485.6,196.9,485.6z M130,189.6c0,8.3,0,16.3,0,24.2c0,8.3-1.9,9.9-10.4,8.8c-18.7-2.5-32.3-12.4-40.9-29.1
	c-0.9-1.6-2.6-4-4-4c-14.3-0.3-28.5-0.2-43.1-0.2c0,69.8,0,138.8,0,208.1c112.1,0,223.9,0,335.9,0c0-69.4,0-138.4,0-208.1
	c-17.3,0-34.1-0.1-50.9,0.2c-1.5,0-3.5,2.5-4.5,4.3c-8.7,16.8-22.5,26.3-41.1,28.9c-7.9,1.1-9.9-0.7-10-8.6c0-8.1,0-16.3,0-24.4
	C217,189.6,173.8,189.6,130,189.6z M425.7,178.3c0.1-2.4,0.3-4.4,0.3-6.5c0-28,0.1-56,0-84c-0.1-31-22.3-53.6-53.3-53.7
	c-44-0.2-88,0-132,0c-1.2,0-2.5,0.4-4.5,0.7c17.8,12.1,29.5,27.5,33.4,47.6c2,10.4,1.7,21.3,2,32c0.1,4,1.1,5.6,5.3,6.6
	c19.3,4.7,32.4,16.6,38.1,35.7c2,6.7,2,14,2.9,21.5C353.5,178.3,389.4,178.3,425.7,178.3z M379.1,189.6c0,80.6,0,160.9,0,241.2
	c35.3,0,70,0,104.6,0c0-80.6,0-160.8,0-241.2C448.6,189.6,414,189.6,379.1,189.6z M260.5,178.3c0.2-1.3,0.6-2.3,0.6-3.3
	c0-26.1,0.8-52.3-0.3-78.4c-1.5-36.1-31.6-63.9-66.2-62.7c-37.1,1.3-64.5,29.8-64.5,67.3c0,23.2,0,46.4,0,69.5c0,2.4,0,4.9,0,7.6
	C174,178.3,217.1,178.3,260.5,178.3z M31.5,430.8c112.5,0,224.2,0,336,0c0-7.6,0-14.6,0-21.8c-112.2,0-224,0-336,0
	C31.5,416.6,31.5,423.5,31.5,430.8z M208.4,442.2c0,14.6,0,28.6,0,42.9c33,0,65.7,0,98.5,0c0-14.5,0-28.5,0-42.9
	C274.1,442.2,241.5,442.2,208.4,442.2z M119,211.4c0-26.9,0-53.2,0-79.6c-17.1,0.6-33,17.8-34.4,37.1
	C83.1,189.1,97.8,207.7,119,211.4z M272.2,131.7c0,26.5,0,53,0,79.5c20.1-2.9,34.9-20.9,34.2-41
	C305.6,150.3,290.3,132.8,272.2,131.7z"/>
<path class="st0" d="M367.5,409c0,7.2,0,14.2,0,21.8c-111.8,0-223.5,0-336,0c0-7.4,0-14.3,0-21.8"/>
<path class="st0" d="M272.2,211.2c0-26.6,0-53,0-79.5"/>
<path class="st0" d="M131.8,289c-6.4,11.1-12.6,21-18.1,31.4c-2.6,5-5.9,6.8-11.5,6.6c-11.4-0.4-22.7-0.2-34.1-0.1
	c-3.7,0-7.2-0.6-7.3-5c-0.2-4.8,3.5-5.6,7.4-5.6c9.7,0,19.4-0.1,29.1,0.1c4.5,0.1,7.2-1.3,9.5-5.4c6.9-12.5,14.2-24.8,21.6-37.1
	c1.2-2,4.1-4.4,5.9-4.2c1.9,0.2,4.2,3.2,4.9,5.4c5.8,20,11.3,40,16.9,60.1c0.6,2.1,1.3,4.2,2.4,7.8c4-9.1,7.6-16.9,10.8-24.8
	c1.8-4.5,4.3-6.6,9.4-6.5c13,0.3,26.1,0.1,39.2,0.1c3.7,0,7.1,0.6,7.3,5c0.2,4.9-3.3,5.8-7.2,5.8c-10.1,0-20.2,0.5-30.3-0.2
	c-6.7-0.5-9.7,2-12,8c-3.7,9.8-8.1,19.4-12.6,28.9c-1.1,2.3-3.9,3.7-5.9,5.6c-1.9-2.1-4.9-4-5.6-6.4c-6.2-21.4-11.9-42.9-17.9-64.4
	C133.3,292.7,132.7,291.4,131.8,289z"/>
<path class="st0" d="M288.9,280.9c20.4-16.8,47.7-1.4,49.5,24.7c1.9,26.5-22.1,54.9-48.5,54.7c-20.5-0.2-35.6-11.7-44.9-30
	c-6.2-12.4-7-25-1.5-38.3C250,276.4,273,266.4,288.9,280.9z M329.1,308.4c-2.4-5.7-3.8-12-7.4-16.8c-8-10.7-20.7-9.2-27.5,2.2
	c-1,1.7-3.5,3.6-5.2,3.5c-1.7-0.1-4-2.1-5-3.9c-6.5-11.1-19.2-12.3-27.4-2.2c-5.9,7.2-7,15.5-5.3,24.4c3.7,18.6,23.3,35.5,39.6,34
	C310,347.8,327.6,328.4,329.1,308.4z"/>
<path class="st0" d="M466.3,247c0.1,19.6-15.5,35.3-35.2,35.3c-19,0.1-34.8-15.9-34.7-35.2c0-19.4,15.4-34.8,34.9-35
	C450.4,212,466.2,227.6,466.3,247z M430.9,271.4c13.8,0,24.5-10.5,24.7-24.1c0.1-13.4-10.9-24.4-24.5-24.3
	c-13.1,0.1-24.2,11.2-24.1,24.2C407.1,260.4,418,271.4,430.9,271.4z"/>
<path class="st0" d="M432,301.4c4.8,0,9.7,0.1,14.5,0c4.8-0.2,7.1,2,7.1,6.7c0,10.1,0,20.2,0,30.3c0,5-2.6,7.2-7.5,7.1
	c-9.7-0.1-19.3,0-29,0c-5.1,0-7.7-2.1-7.6-7.6c0.2-9.9,0.1-19.8,0-29.6c0-4.7,2-7,6.8-6.9C421.4,301.5,426.7,301.4,432,301.4z
	 M442.2,334.3c0-7.7,0-14.8,0-22.4c-6.7,0-12.9-0.1-19.2,0.1c-1,0-2.8,1.6-2.8,2.4c-0.2,6.6-0.1,13.2-0.1,19.9
	C428,334.3,434.8,334.3,442.2,334.3z"/>
<path class="st0" d="M409.4,386.4c0-5.3,0.1-10.5,0-15.8c0-4.2,2.1-6.2,6.2-6.2c10.5,0,21,0,31.5,0c4.2,0,6.3,2.1,6.4,6.1
	c0.1,10.5,0.1,21,0,31.5c0,4-2.2,6.3-6.3,6.3c-10.5,0.1-21,0.1-31.5,0c-4.4,0-6.4-2.4-6.3-6.8C409.5,396.5,409.4,391.4,409.4,386.4z
	 M420.5,375.3c0,7.7,0,14.9,0,22c7.6,0,14.6,0,21.6,0c0-7.6,0-14.6,0-22C434.8,375.3,428,375.3,420.5,375.3z"/>
<path class="st0" d="M442.2,311.9c0,7.7,0,14.7,0,22.4c-7.3,0-14.2,0-22.1,0c0-6.7-0.1-13.3,0.1-19.9"/>
<path class="st0" d="M420.5,397.2c0-7.1,0-14.2,0-22c7.4,0,14.3,0,21.6,0"/>
</svg>
