<?xml version="1.0" encoding="utf-8"?>
<!-- Generator: Adobe Illustrator 25.4.1, SVG Export Plug-In . SVG Version: 6.00 Build 0)  -->
<svg version="1.1" id="Capa_1" xmlns="http://www.w3.org/2000/svg" xmlns:xlink="http://www.w3.org/1999/xlink" x="0px" y="0px"
	 viewBox="0 0 512 512" style="enable-background:new 0 0 512 512;" xml:space="preserve">
<style type="text/css">
	.st0{fill:#FFFFFF;}
</style>
<path class="st0" d="M293.1,491.5c-26.2,0-52.4-0.1-78.6,0c-6.7,0-10.2-3.7-11.2-9.6c-2.8-15.9-6.1-31.8-11.5-47.1
	c-1.3-3.7-3-7.3-4.8-10.8c-3.2-6-8.8-9-15.2-10.7c-7.6-2-15.3-2.3-23.2-1.6c-7,0.6-14,1.1-21,1.6c-6.8,0.5-13.6,1.4-20.4,1.4
	c-7.4,0.1-14.6-1.1-21.2-5c-5.4-3.2-8.8-8.1-11-13.8c-2.7-6.8-3.6-13.9-4.4-21.1c-1.4-13.4-2.2-26.8-5.7-39.8c-3-11-9-19.8-18.6-26
	c-2.8-1.8-5.5-3.8-8.2-5.7c-7.4-5.2-10-15.6-2.7-23.9c5.9-6.8,11.9-13.5,17.5-20.6c7.9-10.1,13.3-21.6,14.5-34.5
	c0.7-7.8,0-15.7-0.2-23.5c-0.1-3.6-0.6-7.2-0.8-10.9c-0.3-8.5-0.9-17-0.7-25.4c0.3-14.5,3.4-28.4,8.5-41.9
	c6-15.7,14.8-29.8,25.9-42.4c14.1-16,31-28.4,50-38.1c16.7-8.5,34.2-14.4,52.5-17.9c10.3-2,20.7-3.5,31.3-3.6
	c8-0.1,16.1-0.3,24.1,0.1c20.1,1,39.7,4.6,58.9,10.6c1,0.3,1.4,0.8,1.4,1.9c0,8.8,0,17.6,0,26.5c0,1.6-0.9,1.7-2.1,1.7
	c-12.5,0-24.9,0-37.4,0c-3.1,0-3.1,0-3.1,3.1c0,12.6,0,25.2,0,37.8c0,1.8,0.5,2.4,2.4,2.4c12.7-0.1,25.3,0,38-0.1
	c1.9,0,2.4,0.6,2.4,2.4c-0.1,12.5,0,25,0,37.6c0,2.5,0,2.6,2.6,2.6c12.5,0,25,0.1,37.6,0c1.8,0,2.4,0.4,2.4,2.3
	c-0.1,12.5-0.1,24.9,0,37.4c0,1.8-0.6,2.2-2.3,2.2c-12.6-0.1-25.2,0-37.8-0.1c-1.9,0-2.5,0.6-2.5,2.5c0.1,12.3,0,24.5,0,36.8
	c0,3,0,3-2.9,3c-12.3,0-24.7,0-37,0c-2.7,0-2.7,0-2.7,2.8c0,12.6,0,25.2,0,37.8c0,2-0.6,2.5-2.5,2.4c-12.5-0.1-24.9,0-37.4,0
	c-2.7,0-2.7,0-2.7,2.6c0,12.7,0,25.3,0,38c0,2.6,0,2.6,2.7,2.6c12.5,0,24.9,0,37.4,0c1.9,0,2.5,0.5,2.5,2.4c-0.1,12.5,0,25,0,37.6
	c0,2.6,0,2.6,2.7,2.6c12.5,0,25,0,37.6,0c1.8,0,2.4,0.5,2.4,2.4c-0.1,12.6,0,25.2-0.1,37.8c0,1.9,0.5,2.5,2.5,2.5
	c14.4-0.1,28.9,0,43.3-0.1c1.8,0,2.3,0.7,2.5,2.2c3,25.2,8.3,49.9,15.5,74.2c1.7,5.7-1.2,10.8-6.9,12.3c-1,0.3-2.1,0.3-3.2,0.3
	C345.7,491.5,319.4,491.5,293.1,491.5z M258,120.3c-6.6,0-13.2,0-19.7,0c-1.6,0-2.3,0.4-2.3,2.1c0.1,13,0,26.1,0,39.1
	c0,1.5,0.5,2,2,2c13.1,0,26.2,0,39.3,0c1.5,0,2-0.5,2-2c0-13.1-0.1-26.2,0-39.3c0-1.7-0.6-2-2.1-2
	C270.8,120.4,264.4,120.3,258,120.3z M258.5,391c0-6.5,0-13,0-19.5c0-1.6-0.4-2.3-2.1-2.2c-13,0.1-26.1,0-39.1,0c-1.5,0-2,0.5-2,2
	c0,13.1,0,26.2,0,39.3c0,1.5,0.5,2,2,2c13.1,0,26.2,0,39.3,0c1.5,0,2-0.4,2-1.9C258.5,404,258.5,397.5,258.5,391z M172.7,147.1
	c6.5,0,13,0,19.5,0c1.5,0,1.9-0.5,1.9-2c-0.1-13.1-0.1-26.2,0-39.3c0-1.5-0.5-2-2-2c-13,0-26.1,0-39.1,0c-1.5,0-1.9,0.6-1.9,2
	c0.1,13.1,0.1,26.2,0,39.3c0,1.5,0.5,2,2,1.9C159.6,147.1,166.2,147.1,172.7,147.1z M226,220.8c6.5,0,12.9-0.1,19.3,0
	c1.7,0,2.1-0.5,2.1-2.2c-0.1-12.9-0.1-25.8,0-38.7c0-1.7-0.5-2.1-2.2-2.1c-13,0.1-25.9,0.1-38.9,0c-1.7,0-2.2,0.5-2.2,2.2
	c0,12.9,0.1,25.8,0,38.7c0,1.7,0.6,2.1,2.3,2.1C212.9,220.7,219.5,220.8,226,220.8z"/>
<path class="st0" d="M350.2,101.6c-6.3,0-12.5,0-18.8,0c-1.5,0-2-0.4-2-2c0.1-12.7,0.1-25.3,0-38c0-1.5,0.4-2,2-2
	c12.7,0.1,25.3,0.1,38,0c1.5,0,2,0.4,2,2c-0.1,12.7-0.1,25.3,0,38c0,1.7-0.7,2-2.2,2C362.9,101.5,356.5,101.6,350.2,101.6z"/>
<path class="st0" d="M382.7,111.1c0-6.3,0-12.5,0-18.8c0-1.5,0.4-2,2-2c12.7,0.1,25.4,0,38.1,0c1.5,0,1.8,0.5,1.8,1.9
	c0,12.7,0,25.4,0,38.1c0,1.4-0.4,1.9-1.9,1.9c-12.7,0-25.4,0-38.1,0c-1.6,0-2-0.5-1.9-2C382.8,123.9,382.7,117.5,382.7,111.1z"/>
<path class="st0" d="M465.4,131.8c6.3,0,12.6,0,19,0c1.5,0,2,0.4,2,1.9c-0.1,12.7,0,25.4,0,38.1c0,1.4-0.5,1.9-1.9,1.9
	c-12.7,0-25.4,0-38.1,0c-1.6,0-1.9-0.6-1.9-2c0-12.6,0-25.3,0-37.9c0-1.5,0.5-2,2-2C452.7,131.9,459.1,131.8,465.4,131.8z"/>
<path class="st0" d="M406.4,224.3c-6.2,0-12.4-0.1-18.6,0c-1.8,0-2.4-0.4-2.4-2.3c0.1-12.5,0.1-24.9,0-37.4c0-1.8,0.5-2.3,2.3-2.3
	c12.5,0.1,24.9,0.1,37.4,0c1.7,0,2.3,0.4,2.3,2.2c-0.1,12.5-0.1,25,0,37.6c0,1.7-0.5,2.2-2.2,2.2
	C418.9,224.3,412.6,224.3,406.4,224.3z"/>
<path class="st0" d="M376.3,244.2c0,6.4,0,12.8,0,19.2c0,1.5-0.5,2-2,2c-12.6,0-25.3,0-37.9,0c-1.5,0-2-0.4-2-1.9
	c0.1-12.7,0-25.4,0-38.1c0-1.4,0.5-1.9,1.9-1.9c12.7,0,25.4,0,38.1,0c1.6,0,1.9,0.6,1.9,2.1C376.2,231.7,376.3,237.9,376.3,244.2z"
	/>
<path class="st0" d="M310.1,274.8c6.3,0,12.6,0,19,0c1.5,0,2,0.4,2,2c0,12.6,0,25.3,0,37.9c0,1.5-0.4,2-1.9,2c-12.7,0-25.4,0-38.1,0
	c-1.4,0-1.9-0.4-1.9-1.9c0-12.7,0-25.4,0-38.1c0-1.6,0.7-1.9,2.1-1.9C297.4,274.9,303.8,274.8,310.1,274.8z"/>
<path class="st0" d="M402.5,279.8c6.3,0,12.6,0,19,0c1.5,0,2,0.4,2,2c0,12.6-0.1,25.3,0,37.9c0,1.6-0.6,2.1-2.1,2.1
	c-12.6,0-25.2,0-37.7,0c-1.6,0-2.1-0.5-2.1-2.1c0.1-12.6,0.1-25.3,0-37.9c0-1.5,0.5-2,2-1.9C389.9,279.8,396.2,279.8,402.5,279.8z"
	/>
<path class="st0" d="M340.6,356.7c0-6.3,0-12.5,0-18.8c0-1.5,0.3-2.2,2-2.2c12.7,0.1,25.3,0.1,38,0c1.5,0,2,0.4,2,2
	c0,12.7,0,25.3,0,38c0,1.6-0.6,2.1-2.1,2.1c-12.6,0-25.2,0-37.8,0c-1.6,0-2.1-0.5-2.1-2.1C340.6,369.3,340.6,363,340.6,356.7z"/>
<path class="st0" d="M432.3,404.4c-6.3,0-12.5,0-18.8,0c-1.6,0-2.1-0.5-2-2.1c0.1-12.6,0.1-25.2,0-37.7c0-1.6,0.5-2.1,2.1-2.1
	c12.6,0.1,25.2,0.1,37.7,0c1.7,0,2.2,0.5,2.2,2.2c-0.1,12.5-0.1,25,0,37.5c0,1.7-0.5,2.2-2.2,2.2
	C444.9,404.4,438.6,404.4,432.3,404.4z"/>
</svg>
