<?xml version="1.0" encoding="utf-8"?>
<!-- Generator: Adobe Illustrator 25.4.1, SVG Export Plug-In . SVG Version: 6.00 Build 0)  -->
<svg version="1.1" id="Capa_1" xmlns="http://www.w3.org/2000/svg" xmlns:xlink="http://www.w3.org/1999/xlink" x="0px" y="0px"
	 viewBox="0 0 512 512" style="enable-background:new 0 0 512 512;" xml:space="preserve">
<style type="text/css">
	.st0{fill:#FFFFFF;}
</style>
<g>
	<path class="st0" d="M275.1,40.4c1.6,1.2,3.2,2.5,4.9,3.5c4.3,2.6,8.1,5.4,10.7,10.2c2.6,4.9,1.6,9.6,1,14.1c-0.4,2.5-1.7,6-5.1,8
		c-1.5,0.8-2.2,4.2-4.4,5.6c-3.9,2.5-6.8,6.6-11.6,7.7c-1.3,3.7-5.9,1.1-7.6,4c0,0.1-0.2,0.1-0.3,0.1c-3.3,0.7-6.6,1.4-9.8,2.1
		c-1.7,0.4-4.1-0.8-4.8,2c0,0.2-0.5,0.2-0.8,0.3c-3.7,0.7-7.9,0.6-10.9,2.3c-2.8,1.6-6.8,0-8.7,3.6c-0.2,0.4-1.5,0.4-2.3,0.5
		c-2.5,0.1-4.9,0-7.7,0c0,28.5,0,56.5,0,85.6c1.8-1,3.2-1.6,4.3-2.4c2.9-2.1,5.5-4.5,8.5-6.3c1.9-1.2,4.3-1.5,6.5-2.3
		c1.8-0.7,2.9-2.8,5.3-2.8c1,0,2-0.8,2.9-1.4c3.2-2.1,7.7-0.6,10.6-3.8c0.4-0.5,1.6-0.4,2.4-0.4c6.2,0,12.4-0.1,18.7,0
		c1,0,2,0.9,3,1.4c0.3,0.2,0.6,0.6,0.9,0.7c3.2,0.7,6.6,1,9.6,2.2c2.3,1,5,1,6.9,3.4c1.2,1.4,3.7,1.8,5.6,2.6
		c1.8,0.8,3.8,1.3,5.5,2.2c1.1,0.6,1.8,1.8,2.8,2.5c2.9,2.2,5.8,2.3,8.8,0.1c0.7-0.5,1.8-0.2,2.7-0.4c1.3-0.2,3.3,0.7,3.5-1.9
		c0-0.2,0.6-0.4,1-0.5c4.6-1.4,10-1.7,13.6-4.4c2.5-2,5.6-1,7.8-3.4c1.2-1.3,3.9-1.2,5.9-1.8c3.3-1,6.5-2.5,9.8-2.8
		c4.6-0.5,9.3-0.2,14-0.1c1.5,0,3.4-0.8,4.1,1.9c0.3,1,2.5,1.7,4,2.3c3.3,1.2,3.9,4.7,5.9,6.8c3.1,3.1,1.4,6.7,2.4,9.9
		c3.2,9.7,1.3,19.7,1.6,29.6c0.5,14.1-0.1,28.2,0.2,42.3c0.1,4.9-1.9,8.2-5.5,11.3c-3.4,2.9-6.1,6.6-9.2,9.8c-1,1-2.6,1.5-3.9,2.4
		c-1.8,1.2-4,1.6-5.2,3.9c-0.6,1.2-2.6,1.8-4,2.4c-2.1,0.9-4.7,1.1-6.5,2.4c-1.6,1.1-3,2.1-4.9,2.7c-2.6,0.8-5.1,2.1-7.6,3.1
		c-0.2,0.1-0.5-0.1-0.6,0c-0.9,0.5-1.8,1.2-2.8,1.6c-0.9,0.4-1.8,0.8-2.7,0.8c-9.8,0.1-19.7,0-29.5,0.3c-7.1,0.2-14.6,0-21.2,2
		c-6.9,2.1-13.6,1.3-20.4,1.4c-16.4,0.3-32.8,0.7-49.1-0.3c-6.9-0.4-13.9-0.5-20.6-1.9c-3.5-0.7-6.9-1.1-10.3-1.6
		c-0.6-0.1-1.1-0.7-1.6-1c-0.6-0.4-1.2-1.1-1.9-1.2c-2.4-0.4-4.7-0.2-7.2-1.6c-2.8-1.6-6.4-1.5-9.7-2.3c-0.7-0.2-1.3-0.9-1.9-1.4
		c-0.3-0.2-0.5-0.7-0.8-0.8c-2.8-0.7-5.9-0.9-8.2-2.3c-2.2-1.3-5.3-0.7-6.7-3.4c-0.2-0.3-0.7-0.6-1-0.6c-3.3-0.3-5.7-2.3-8.5-3.6
		c-3.8-1.7-7.2-4.7-10.8-5.9c-4.3-1.4-5.5-5.9-9.5-7c-0.9-0.2-1.6-1.8-2-2.8c-0.9-2.3-1.5-4.7-2.1-7.2c-0.4-1.8,0.3-4-2.1-5.1
		c-0.3-0.1-0.3-1.3-0.3-2c0-5.2,0-10.4,0.1-15.6c0-0.8,0.5-1.7,0.8-2.5c0.4-0.9,1-1.8,1.4-2.8c0.2-0.5,0-1,0.1-1.5
		c0.7-5.2,0.6-10.6,2.3-15.4c1-3,1.3-5.7,1.6-8.7c0-0.2,0-0.5,0.1-0.6c3.4-1.6,1.7-4.8,2.4-7.2c0.9-3.4,2.3-6.7,3.3-10.1
		c0.3-1.1,0.1-2.3,0.3-3.4c0.3-1.8-1-4.3,2.1-5c0.1,0,0.2-0.4,0.2-0.5c0.7-3.4,1.4-6.9,2.1-10.3c0.7-3.4,0.7-7.2,2.4-10
		c2.4-3.9,2.9-8,3.9-12.2c0.6-2.3,0.7-5.1,2.1-6.9c2.9-3.6,2.6-8.1,4.6-11.8c1.1-2.1,0.1-5.3,3.4-6.7c1.2-0.5,1.5-3.5,2.1-5.3
		c0.8-2.4,0.9-5.1,2.3-7.1c1.2-1.7,2.1-3.3,2.7-5.4c0.6-2.2,2.1-4.1,3.2-6.1c1.3-2.2,2.7-4.4,4-6.7c0.9-1.7,1.4-3.7,2.4-5.4
		c1.7-2.6,4.3-4.9,5.3-7.7c1.5-4.4,6.1-6.3,7.6-10.9c1-2.9,5.1-4.7,7.7-7.2c1.3-1.2,2.2-3,3.5-4.1c1.8-1.5,3.9-2.5,5.7-3.9
		c2-1.5,3.7-3.4,5.6-4.9c3.2-2.6,6.4-5,9.6-7.5c0.7-0.6,1-1.8,1.8-2.3c1.8-1.4,3.8-2.4,5.6-3.7c2.7-2,5.3-4.2,8.2-6
		c2.1-1.3,4.8-1.6,6.8-3c4.3-3.1,9-1.4,13.5-1.5c1.4,0,3.6,1.2,4.1,2.4c1,2.3,3.2,2.4,4.6,3.7c1.9,1.8,5.2,0.9,6.5,3.9
		c0.4,1.1,2.5,1.6,3.9,2.1c2.5,0.9,5.1,1.6,7.7,2.4C275.3,40.1,275.2,40.2,275.1,40.4z M242.6,208.7c2-1.1,3.5-2.2,5.1-2.7
		c2.7-0.9,5.6-1.5,8.3-2.2c0.4-0.1,0.6-0.4,1-0.6c0.9-0.6,1.8-1.5,2.8-1.6c4.2-0.2,8.5-0.1,12.7,0c1,0,2.8,0.2,2.9,0.6
		c0.6,2.4,2.5,1.6,4,1.9c0.7,0.1,1.5,0.1,2.1,0.4c2.6,1.1,5.1,2.3,7.6,3.4c0.4,0.2,1,0.3,1,0.5c0.5,3.4,2.8,1.6,4.5,1.8
		c0-2.6-4.6-5.9-8.2-6.7c-0.9-0.9-1.9-1.5-2.9-2c-0.4-0.2-0.9-0.4-1.3-0.5c-2.6-1-5.1-2.8-7.7-3c-5.3-0.5-10.8-0.2-16.1-0.2
		c-0.9,0-2.2-0.2-2.7,0.4c-2.8,2.8-7.3,2.6-10,5.8c-0.9,1-2.6,1.3-3.8,2.2c-1.2,0.9-2.3,2.2-3.4,3.3
		C240.9,210.3,242.7,210.7,242.6,208.7z"/>
	<path class="st0" d="M103.2,334.3c0.6,1.1,1.2,2.3,1.9,3.4c1-0.9,1.9-1.7,2.9-2.6c0,2-0.6,4.2,0.1,5.8c1.9,4.7,0.6,9.9,2.1,14.4
		c1.3,3.9,1,7.5,1.5,11.3c0.1,0.4-0.1,1,0.1,1.2c3.3,2.9,1.9,6.8,2.3,10.2c0.1,0.5,0.3,0.9,0.9,2.3c1.2-2.2,1.6-4.4,2.9-5.3
		c2.8-1.9,2.5-5.5,4.9-7.5c0.5-0.4,1-1.1,1.1-1.7c0.2-1.3,0.1-2.3,2-2.8c1-0.2,1.8-2.3,2.2-3.7c1.3-4.3,4.6-7,7.6-10.4
		c8.6,7.9,9.9,19,13.9,29.2c0.7,0.5,1.8,1.3,3.2,2.3c0.7-3.1,1.5-5.7,4.4-7.3c1-0.6,0.5-2.6,1.9-4c1.4-1.4,2.6-1.4,3.9-1.4
		c15.5-0.1,30.9,0,46.4,0c4.1,0,4.9-0.6,6.1-4.5c0.3-0.9,1.1-1.7,1.8-2.4c2.6-2.9,3.8-6.9,6.5-9.4c2.6-2.4,3.6-5.6,5.9-8.1
		c2.3-2.5,4.2-5.4,6.4-8c0.8-1,1.9-1.6,2.7-3c1,0,2,0,2.3,0c1.3,1.1,2.1,1.7,2.9,2.4c0.2,0.2,0.5,0.3,0.6,0.6
		c0.6,2.3,1.5,4.6,1.8,6.9c0.8,6.5,1.4,13.1,2.2,19.7c0.2,1.3,1.3,2.5,1.7,3.9c0.4,1.1,0.5,2.3,0.6,3.5c0.1,2.8-0.4,5.7,1.7,8.1
		c0.4,0.4,0.9,0.7,1.1,0.8c5.6-9.1,11-17.9,16.7-27.1c0.4-0.1,1.7-0.1,2.1-0.6c2.3-2.9,4,0.1,4.6,1c1.3,1.7,1.6,4.2,2.5,6.3
		c0.3,0.7,0.8,1.4,1.2,2c0.3,0.4,0.8,0.7,0.9,1.1c0.8,2.9,1.2,6,2.4,8.7c0.9,2.2,0.8,5,3.4,6.5c0.8,0.5,0.7,2.6,1.2,4.3
		c1.1-0.9,2.7-1.6,2.7-2.3c0.1-4.4,5.6-5.8,5.1-10.5c1.6,0,2.9,0,4.2,0c17.9,0,35.9-0.1,53.8,0.1c3.5,0,4.7-1.7,5.9-4.3
		c0.4-1,1.8-1.5,2.4-2.4c1.4-2.1,2.6-4.4,4-6.6c0.8-1.2,1.8-2.2,2.6-3.3c1.3-1.8,2.3-3.8,3.6-5.6c0.6-0.8,1.7-1.1,2.3-1.8
		c1.4-1.8,2.5-3.8,3.8-5.6c0.9-1.2,2.1-2.2,3.1-3.3c0.6-0.7,1.1-1.4,1.9-2.3c1.4,0,3.2,0,5.5,0c0.7,5.5,1.3,10.9,1.9,16.3
		c0.1,0.5,0,1.3,0.2,1.5c3.1,2.1,1.8,5.3,2.1,8.1c0.7,5.4,1.2,10.9,2.2,16.3c0.3,1.5,1.8,2.8,2.7,4.2c1.9-2.8,3.4-4.9,4.6-7.1
		c0.5-0.8,0-2.6,0.6-2.9c3.1-1.6,2.4-5.5,4.9-7.4c0.3-0.2,1-0.5,0.9-0.6c-0.7-2.6,2-3.4,2.9-5.2c0.9-1.7,2.3-3.1,3.3-4.7
		c1.1-1.9,2.1-1.8,3.6-0.5c0.6,0.6,1.7,0.6,2.6,1c0.8,1.4-0.6,4.1,2.4,4.2c0.1,0,0.2,0.3,0.3,0.5c0.7,2.7,0.7,5.8,2.3,7.9
		c2,2.7,0.5,6.3,3.7,8.7c1.8,1.3,1.8,4.9,2.8,8.2c1.1-2.1,3.6-2.1,3.9-4.9c0.3-3.7,5.8-8.1,9.6-8.1c8.1,0,16.2,0,24.3,0
		c2.8,0,5.6-0.2,8.4,0.1c2.5,0.3,4.9,1.2,7.3,1.9c0,1.4,0,2.5,0,3.5c-3.2,3.4-7.4,2.6-11.4,2.6c-7.9,0-15.8,0.2-23.6-0.1
		c-2.7-0.1-4.8,0.6-6.2,2.7c-1,1.5-1.3,3.4-2.3,5c-1,1.5-2.5,2.5-2.9,4.6c-0.4,1.8-2,3.4-3.3,4.9c-1.2,1.4-2.7,2.6-4.2,3.8
		c-0.3,0.2-1,0-1.1-0.5c-0.9-0.7-2-1.2-2.6-2.1c-0.9-1.3-1.6-2.9-2.1-4.4c-0.9-2.6-1.5-5.2-2.3-7.8c-0.2-0.7-0.8-1.4-1.2-2
		c-0.3-0.4-0.9-0.7-1-1.1c-0.8-3-1.4-6.1-2.3-9c-0.4-1.4-1.3-2.8-2.2-3.9c-0.7-0.9-3.6,1.3-3.8,3.3c-0.3,2.4-1.5,3.9-3.4,5.2
		c-0.4,0.3-0.7,0.9-0.9,1.5c-1.3,3.5-2.8,6.8-5.5,9.5c-1.3,1.4-1.8,3.5-2.7,5.2c-0.8,1.4-1.7,2.7-2.7,3.9c-0.6,0.8-1.5,1.3-2,2.6
		c-1.8-0.1-3.6-0.2-5.9-0.4c-0.7-5-0.6-10-2.2-14.5c-1.6-4.3-1.2-8.5-1.7-12.7c0-0.3,0-0.8-0.1-0.9c-3.8-2.4-1.5-6.3-2.2-9.5
		c-0.7-3.3-1.5-6.6-2.3-10.1c-2.8,1.3-4.2,3.8-5.8,6.3c-1,1.6-1.4,3.7-3.7,4.6c-1.1,0.4-1.8,2.2-2.3,3.5c-0.8,2.1-2,3.5-4,4.7
		c-1.2,0.7-1.7,2.8-2.4,4.3c-1.3,2.8-3.6,3.4-6.4,3.3c-17.7-0.1-35.5,0-53.2,0c-2.4,0-4.1-0.1-4.8,3.3c-0.3,1.6-2,3.5-2.9,5.4
		c-0.6,1.4-2.3,2.5-2.4,3.8c-0.5,3.4-3.3,4.9-5,7.2c-0.2,0.3-0.2,0.7-0.3,1.1c-2.9,0.1-5.2-1.6-5.9-4.1c-0.6-2.3-0.7-5.8-2.2-6.6
		c-2.8-1.6-1-5-3.5-6.2c-0.2-0.1-0.2-0.5-0.3-0.8c-0.7-3-1.2-6.2-2.2-9.1c-0.5-1.5-1.9-2.6-3-4c-1,0.9-2.7,1.7-2.9,2.7
		c-0.3,1.9-1.3,2.8-2.5,4.1c-1.9,2.2-2.7,5.2-4.1,7.8c-0.8,1.5-2.1,2.7-2.9,4.2c-1.2,2-2.1,4.2-3.3,6.2c-0.7,1.2-1.8,2.3-2.7,3.4
		c-0.7,0.8-1.4,1.6-2.4,2.6c-1.4,0-3.2,0-5.4,0c-0.7-5.1-0.2-10.5-2.3-14.7c-2.2-4.5-0.8-9.1-2.5-13c-1.6-3.8-0.9-7.4-1.5-11
		c-0.5-3-1.5-5.9-2.4-9.5c-1.2,0.9-2.5,1.8-3.5,2.9c-0.7,0.7-1.4,1.6-1.6,2.5c-0.9,3.5-4.8,4.9-5.7,7.9c-1.4,4.5-6.3,6.1-7.6,10.6
		c-0.5,1.7-2.7,3.3-5.6,3.3c-15.2-0.2-30.5-0.1-45.7-0.1c-1.2,0-2.5,0-3.4,0c-2,3.7-3.8,7.2-5.6,10.6c-0.7,1.3-0.9,2.8-1.8,3.9
		c-1.4,1.6-3.1,2.8-4.7,4.3c-0.5,0.4-0.7,1.2-1.2,1.4c-0.7,0.3-2.2,0.6-2.3,0.4c-1.2-2.9-4.7-4.6-4.1-8.3c-3-1.2-1.5-4.8-3.6-6.6
		c-0.2-0.2-0.3-0.5-0.4-0.8c-0.8-2.9-1.5-5.8-2.2-8.8c-0.2-0.6-0.2-1.2-0.5-1.7c-0.8-1.3-1.7-2.5-3.1-4.3c0,0-1,0.1-1.4,0.2
		c-6.3,10.4-12.3,20.4-18.7,30.9c-1.3,0.1-3.1,0.2-5.8,0.3c-0.6-3.7-1.1-7.2-1.6-10.7c-0.1-0.4,0-1.1-0.2-1.2
		c-3.5-1.7-1.8-5-2.2-7.6c-0.8-5.6-0.5-11.5-2.4-16.7c-1.4-4-0.7-7.8-1.8-12.4c-1.5,1.1-3.2,1.7-3.8,2.9c-0.9,1.9-1.8,3.2-3.8,4.1
		c-1.2,0.6-1.4,2.8-2.4,4.1c-1.1,1.4-2.5,2.6-3.7,3.9c-0.1,0.1-0.2,0.1-0.2,0.1c0,3.1-2.4,4.8-4.2,6.8c-2.2,2.4-3.8,5.4-7.9,5.3
		c-12.9-0.2-25.7,0-38.6-0.1c-4.1,0-8.5,1.1-12.1-2.5c0-0.8,0-2,0-2.8c3.4-3.6,7.6-2.7,11.6-2.8c11.7,0,23.4,0,35.2,0
		c2.6,0,4.9,0.4,6-3.6c0.9-3.3,4.3-5.9,6.5-8.9c1.1-1.5,2-3.2,3.1-4.7c0.6-0.8,1.8-1.3,2.3-2.2c1.4-2.1,2.4-4.6,4-6.5
		c2.2-2.7,4.9-5.1,7.4-7.5c1.1-1.1,2.5-1.9,3.8-2.8C103.9,332.5,103.6,333.4,103.2,334.3z"/>
	<path class="st0" d="M346.3,417.7c0.7,3.6,1.3,7.1,2,10.7c0,0.2,0,0.5,0.1,0.6c4.1,3.4,1.6,8,2.4,12c0.1,0.7,0,1.7,0.4,2.1
		c0.9,0.9,1.5,2.4,3.4,0.2c2.9-3.2,3.6-7.6,6.2-10.7c1.9-2.3,4.7-3.8,7.6-2.5c1.5,2.9,3,5.7,4.3,8.5c0.4,0.8,0.2,1.8,0.3,2.7
		c0.2,1.2-0.4,2.8,1.8,3c0.3,0,0.5,0.9,0.7,1.5c0.2,0.9,0.3,1.8,0.6,3.3c1.3-2.3,2.2-3.9,3.2-5.4c1.2-1.8,2.7-3,5.1-3
		c3.9,0,7.9-0.2,11.8,0.1c4.4,0.3,8.8,0.9,13.2,1.7c1.2,0.2,2.4,1.5,3.4,2.4c0.2,0.2,0,1.5-0.2,1.6c-1.8,0.8-3.7,1.9-5.6,2
		c-6.3,0.3-12.7,0.3-19,0.1c-2.4-0.1-3.8,1.7-4,2.9c-0.6,2.7-1.7,4.5-4,5.8c-0.3,0.1-0.4,0.7-0.4,1.1c-0.2,3.3-2.9,3.1-4.7,2.7
		c-1.4-0.3-2.5-2.1-3.6-3.3c-1.9-2.4-1.1-6-4-8.1c-0.9-0.7-0.5-3.1-0.7-5c-0.9-0.2-1.8-0.4-2.6-0.5c-1.6,2.3-3.1,4.3-4.4,6.5
		c-1,1.7-1.6,3.6-2.6,5.2c-1.3,2-2.7,4-4.4,5.8c-0.8,0.8-2.5,1.5-3.4,1.2c-1.1-0.4-2.4-1.8-2.6-3c-0.9-4.9-1.4-9.9-2.1-14.8
		c0-0.1,0-0.2,0-0.3c-0.7-2-3-3.2-2.4-5.9c0.4-2.2,0.1-4.5-0.6-7c-1,1.1-2.1,2.1-3,3.3c-1.6,2.2-2.6,4.9-4.6,6.5
		c-2,1.6-1.1,5.1-4.2,5.7c-1,0.2-1.9,1.2-2.9,1.2c-11.2,0.1-22.4,0-33.6,0.2c-2.3,0-4.7,1.2-6.8,1.8c-0.5,4.4-0.8,4.7-7.4,11.9
		c-1.7-1.3-3.4-2.5-5.1-3.8c-1.6-4.7-3.2-9.5-4.9-14.6c-0.7,0-1.9,0.1-3.1,0.2c0.2,0.2,0.4,0.4,0.6,0.7c-1.5,2-3.1,3.9-4.4,6
		c-1.1,1.7-2.4,3.6-2.6,5.6c-0.5,3.3-3.3,4.4-5.2,6.3c-1.3,1.3-5-1.8-5.6-3.8c-1.7-5.4-1.6-11-2.1-16.5c-0.2-2.7-1.5-5.3-2.5-8.7
		c-1.2,0.9-2.5,1.7-3.5,2.8c-1.7,1.9-3.4,3.9-4.9,6c-1.1,1.4-2.2,2.7-2.9,4.3c-0.9,2.1-2.6,1.7-4.1,1.7c-7.6,0.1-15.1,0-22.7,0.3
		c-3.4,0.1-6.8,1.2-10.3,1.8c-2.2,3.2-4.1,6.8-6.8,9.6c-1.1,1.2-3.9,0.7-5.3,0.9c-1.7-3.3-3.1-6-4.5-8.7c-0.3-0.5-0.4-1.1-0.6-1.7
		c-0.7-2.5-1.4-5-2.2-7.5c-0.1-0.4-0.8-0.9-1-0.8c-0.5,0.2-0.9,0.6-1.1,1c-1.4,3-2,6.5-4.1,8.8c-2.7,2.9-4,6.4-6.4,9.3
		c-0.7,0.8-2.6,1-3.9,1c-0.7,0-1.5-1.1-1.9-2c-1.9-4-2.9-8.1-2.9-12.6c0-3.1-1-6.1-1.5-9.2c-0.3-1.7,0.5-3.9-2.1-4.6
		c-2.4-0.6-2.9,1.8-4,2.9c-1,1-1.4,2.6-2.1,3.9c-0.3,0.4-0.8,0.8-1.1,1.1c-1,1.1-2.3,2.1-3,3.4c-1,1.9-2.1,2.9-4.4,2.9
		c-10.1-0.1-20.1,0-30.2,0c-4.4,0-5.5-1.5-4.6-5.7c9.4-3.5,19.1-1.8,28.6-2.2c2.1-0.1,3.9,0.1,5.4-2.3c1.7-2.6,5.1-4.3,6.2-7
		c1.7-4.3,6.4-6.3,7.3-11.2c0.2-1.2,3.3-2.6,4.9-2.4c1.3,0.1,2.7,1.8,3.7,3.8c1.8,3.7,1.1,7.3,1.8,10.9c0.7,3.9,1.5,7.7,2.4,11.7
		c0.8,0,2,0,2.3,0c1.8-2.6,3.3-4.7,4.8-6.8c1.4-2,2.6-4.1,4.1-5.9c2.3-2.5,5-2.2,6.5,0.7c1.5,2.9,3,5.9,4.3,8.9
		c1,2.4,1.7,4.9,2.9,8.2c0.8-1.3,1.3-1.8,1.5-2.4c0.9-3.5,4.1-6.3,7.8-6.3c9.9-0.1,19.7,0,29.6-0.1c0.5,0,1,0,0.9,0
		c1.2-1.3,2.1-2,2.8-3c2.3-3.6,4.4-7.4,6.8-10.9c1.2-1.8,3-3.3,4.5-4.8c1.2-1.2,2.4-2.4,3.8-3.4c0.8-0.5,2.6-1.1,2.7-0.8
		c1.1,1.6,3.5,1.9,3.6,4.7c0.3,6.1,1.1,12.1,2,18.1c0.3,1.8,1.2,3.5,1.9,5.2c0.1,0.3,0.8,0.7,1.1,0.7c0.3-0.1,0.7-0.6,0.9-1
		c1.3-2.9,2.5-5.8,4-8.6c1.1-1.9,3.1-3.4,4-5.3c1.3-2.7,3.6-1.9,5.2-1.4c1.2,0.4,2.2,2.2,2.9,3.6c0.8,1.5-0.4,4.2,2.5,4.5
		c0.1,0,0.1,0.4,0.2,0.6c0.7,2.7,1.4,5.3,2.1,7.9c3.3,0.5,4.3-1.4,4.4-3.6c6.1-4,12.6-2.3,18.9-2.5c8-0.2,16-0.1,24-0.1
		c1.5-2.9,2.3-6.8,4.7-8.2c3.3-1.9,3.3-5.5,5.7-7.6c2.4-2.1,4.3-4.9,6.7-7C343,417.2,344.6,417.7,346.3,417.7z"/>
</g>
</svg>
