<?xml version="1.0" encoding="utf-8"?>
<!-- Generator: Adobe Illustrator 25.4.1, SVG Export Plug-In . SVG Version: 6.00 Build 0)  -->
<svg version="1.1" id="Capa_1" xmlns="http://www.w3.org/2000/svg" xmlns:xlink="http://www.w3.org/1999/xlink" x="0px" y="0px"
	 viewBox="0 0 512 512" style="enable-background:new 0 0 512 512;" xml:space="preserve">
<style type="text/css">
	.st0{fill:#FFFFFF;}
</style>
<path class="st0" d="M248.7,134.6c9.2,0.5,18.3,0.7,27.4,1.7c7,0.8,13.9,2.7,20.9,4.3c4.7,1.1,9.3,2.4,13.8,4
	c4.3,1.5,8.4,3.2,12.5,5.2c7.7,3.7,15.4,7.4,22.9,11.5c4.1,2.2,7.8,5.3,11.7,7.9c2.7,1.8,5.4,3.6,8,5.6c2.3,1.8,4.4,3.7,6.5,5.7
	c6.8,6.7,14,13.2,20.3,20.4c5.7,6.5,10.4,13.8,15.5,20.8c2.7,3.7,5.6,7.4,7.8,11.4c3.8,6.7,7.2,13.6,10.7,20.5c2,4,4,7.9,5.6,12.1
	c2.6,6.7,3.7,13.6,3.8,20.8c0.1,9-3.2,16.8-6.7,24.8c-4.6,10.6-12.5,17.8-22.2,23c-6.4,3.5-13.7,5.3-21.1,5.5
	c-4.5,0.1-9.1-0.1-13.6-0.4c-8-0.5-15.7-2.7-22.3-7.2c-9.3-6.4-17.5-14.2-20.9-25.3c-2.8-9.2-7.1-17.7-12.3-25.6
	c-4.5-6.6-10.3-12.5-16.3-17.8c-4.6-4.1-10.2-7.2-15.7-10.2c-8.8-4.9-18.7-6.3-28.6-7.9c-8.4-1.4-16.6-0.1-24.7,1.3
	c-6.3,1.1-12.3,4.2-18.5,6.3c-6.5,2.2-12,6.2-17.1,10.4c-4.3,3.5-7.8,7.9-11.6,12c-5.9,6.5-9.4,14.5-13.4,22.1
	c-1.1,2-1.5,4.4-2.4,6.5c-1.7,3.8-3.4,7.6-5.2,11.4c-4,8.5-11.4,13.8-19,18.3c-4.6,2.8-10.4,4.2-15.8,5c-8.2,1.2-16.5,2.6-24.7,0
	c-5.9-1.8-12.5-3.1-17.5-6.4c-7.6-5.1-14.9-11-18.1-20.3c-1.9-5.6-4.6-10.9-6.5-16.5c-0.8-2.2-0.5-4.8-0.6-7.2
	c-0.5-9,1.2-17.6,5.1-25.7c4.5-9.4,9.1-18.9,13.9-28.1c1.9-3.6,4.6-6.6,6.8-10c1.6-2.5,2.9-5.2,4.7-7.6c6.5-8.6,13-17.2,21-24.5
	c5.2-4.7,10-9.9,15.1-14.6c1.9-1.8,4.2-3,6.3-4.5c4.9-3.6,9.6-7.5,14.8-10.6c9.6-5.6,19.1-11.5,29.9-14.8c5.8-1.8,11.4-4.4,17.2-6.4
	c3.1-1.1,6.3-1.7,9.5-2.3C219.8,136.4,234.1,134,248.7,134.6z"/>
</svg>
