<?xml version="1.0" encoding="utf-8"?>
<!-- Generator: Adobe Illustrator 25.4.1, SVG Export Plug-In . SVG Version: 6.00 Build 0)  -->
<svg version="1.1" id="Capa_1" xmlns="http://www.w3.org/2000/svg" xmlns:xlink="http://www.w3.org/1999/xlink" x="0px" y="0px"
	 viewBox="0 0 512 512" style="enable-background:new 0 0 512 512;" xml:space="preserve">
<style type="text/css">
	.st0{fill:#FFFFFF;}
</style>
<path class="st0" d="M422.4,201.6c-0.4-2.5-0.9-5-1.1-7.5c-4.6-48.8-29.4-82.8-75.2-99.9c-65.1-24.2-137.5,19.2-148.4,87.9
	c-4.2,26.2,0.2,50.8,13,73.9c9.2,16.6,19.1,32.8,27.6,49.7c15.2,30.1,22.5,62.1,20.9,95.9c-0.6,12.2-3.2,24-8.4,35.2
	c-0.7,1.6-1.6,3.1-2.8,5.3c1.1-5.9,2.5-10.9,2.8-16c0.9-17.9-6.3-32.2-21.2-41.8c-15.1-9.8-31.1-10.1-47.2-2
	c-7.1,3.6-14.3,5.5-22.3,3.8c-9.2-2-14.4-7.9-15.6-17.2c-0.6-4.6-1.8-9.2-3.2-13.6c-1.4-4.4-4.2-7.9-8.5-10.2
	c-2.2-1.2-4-3.4-5.4-5.6c-2-2.9-1.6-5.9,0.8-8.7c2.7-3.1,2.5-3.6-1.3-5.2c-1-0.4-2.1-0.9-3.1-1.4c-5.2-2.8-6-6-3.1-11.2
	c1.2-2.2,2.3-4.5,3-6.9c1.3-4.9-0.1-7.7-4.6-9.8c-3.8-1.8-7.7-3.2-11.4-5.2c-7.5-3.9-8.5-9.2-3.5-16.1c8.1-11,16.4-21.8,24.1-33.1
	c3.1-4.4,5.2-9.5,7.3-14.5c1.6-3.7,0.8-7.5-0.8-11.3c-1.7-4-3-8.4-3.1-12.7C130.5,132.1,182.8,70,253.4,58.8
	c5.2-0.8,10.4-1.5,15.6-2.2c5.3,0,10.6,0,15.9,0c6.7,1,13.4,1.8,20.1,3c56.8,10.6,103.3,56.8,114.3,113.6c1.1,5.9,2,11.9,3,17.8
	C422.4,194.6,422.4,198.1,422.4,201.6z"/>
<path class="st0" d="M298.5,299.9c9.5-1.3,19.3-1.5,28.3-4.2c37.1-11,59.5-36.3,65.6-74.2c5.8-36-6.3-66.2-36.7-87.1
	c-34.5-23.8-81.7-15.4-108.4,18.2c-22.9,28.8-26.2,66.6-8.6,98.9c12.2,22.5,44.8,22.8,59.8,0.7c5.3-7.8,6.3-16.6,7.7-25.5
	c0.2-1.5,0.5-3,0.7-4.5c0.3-2.8,0.9-5.3-2.5-7.3c-3.6-2.1-3.3-8.3-0.2-11.4c2.8-2.9,7.1-2.8,9.7,0.1c2.8,3.2,2.6,9.2-1.1,11.5
	c-3,1.8-2.9,3.8-2.3,6.5c1,4.9,1.6,10,2.8,14.9c2.8,11,12.7,15.9,23.3,11.9c1.5-0.6,3.6-0.6,5.1,0c10,4,23.7-3.1,25.9-17.9
	c0.1-0.9-0.4-2.2-1-3c-2.6-3.4-5.9-5.9-10.4-6.7c-0.5,1.6-0.8,3.3-1.5,4.8c-1.8,3.6-6.1,4.8-9.4,3c-3.3-1.9-4.5-6.7-2.6-10.4
	c1.9-3.7,6.6-5.8,9.1-3.2c3.8,3.9,8.6,2.3,13.3,4.1c-5.9-10.5-15-13-24.7-12.8c-2,2.7-3.6,5.2-5.6,7.2c-0.8,0.8-2.6,0.9-3.9,0.7
	c-3.3-0.4-5.5-3.1-5.7-6.6c-0.2-4.3,1.8-7.5,5.5-8.5c3.6-1,5.7,0.4,8.8,5.8c14.2-1.6,26.7,1.1,33.6,15.7c4.7-5.1,5.8-14.4,2.5-21.7
	c-3.1-6.9-8.2-11.5-16.2-11.7c-6.9-0.2-6.9-0.2-7.5-6.8c-1.1-11.8-9.9-18.7-21.3-16.6c-3.1,0.6-5.4-0.1-7.4-3
	c-5.7-7.8-16-8.8-23.3-2.4c6,9,10.8,19.2,21.5,23.9c4.2-5.3,7-6.5,10.5-4.7c3,1.6,4.5,5.5,3.4,9.2c-0.9,3.3-4.1,5.6-7.3,5.4
	c-3.6-0.2-5.6-2.7-6.3-6.7c-5.7-3.1-10.8-5.9-15-8.3c0.3,1.5,1.3,4.2,1.4,6.8c0,3.2-2,5.4-5.1,6.4c-3.5,1.1-7-0.9-8.2-4.7
	c-1.5-4.7,1-8.7,7.1-10.9c-1.7-6.5-5.4-11.3-11.9-13.4c-7.4-2.4-13.9,0.2-18.7,5.9c-2.6,3.1-4.1,7.1-5.6,11
	c-0.9,2.3-1.9,3.8-4.4,4.6c-11.2,3.4-17.4,20.8-11.1,30.8c0.4,0.7,1.9,1.6,2.2,1.4c1.4-0.8,2.6-2.1,3.9-3.2c0.2-0.2-0.1-0.7-0.1-1.1
	c0.1-4.2,2.2-7.2,5.6-8c2.9-0.7,5.2,0.3,6.9,2.7c2,2.9,1.8,7.1-0.5,9.9c-2.4,2.7-5.2,3.3-8.5,1.7c-0.3-0.2-0.7-0.2-1.2-0.4
	c-4.6,5.4-6.4,11.3-3.9,18.2c2.4,6.4,6.6,10.9,13.5,11.9c7,1,12.2-2.5,16.3-7.8c7.3-9.5,6.7-26.3-1.2-35.4c-0.6-0.7-1.9-1.2-2.7-1.1
	c-4.7,0.7-7-0.1-8.6-3.4c-1.6-3.3-0.7-7.9,2.2-10c2.6-1.9,5.4-2.1,8.1-0.2c3,2.1,3.6,6.2,1.8,10.3c-0.2,0.4-0.5,0.9-0.4,0.8
	c1.8,2.1,3.4,4,5.1,5.9c11.8,12.8,10.1,34.3-3.7,44.9c-14.8,11.5-35.7,3.3-38.9-15.7c-1.3-7.8-2.9-15.2-5.3-22.7
	c-4.6-14.5,2.1-29.4,15.1-37.1c1.2-0.7,2.3-2.2,2.8-3.6c4.8-12.1,15.1-20.4,26.5-19.8c5.3,0.3,9.3-0.8,13.8-3.6
	c9.2-5.7,20.8-3.7,28.5,4.1c1.6,1.6,2.9,2.1,5.2,1.8c12-1.5,22.9,6.5,26.3,19.3c0.8,3.2,1.9,4.5,5.4,5.2
	c13.3,2.6,22.6,16.3,21.4,30.8c-0.6,7.8-3.3,14.7-8.5,20.7c-0.9,1.1-1.5,2.6-1.8,4c-3.2,14.2-15,24.8-28.1,24.2
	c-5.5-0.2-10.8-0.2-16.3,0.5c-8.5,1.1-15.4-2.8-20.5-9c-3.8,5.1-7.1,10.5-11.4,14.9c-16.6,16.9-51.2,21.6-69-9.7
	c-27.9-49.1-8.4-104.5,29.1-131c43.9-31.1,103.1-18.7,130.9,27.4c26.6,44.2,15,103.3-26,132.7c-19.3,13.8-40.7,19.2-64.2,15.5
	c-0.4-0.1-0.9-0.2-1.3-0.3C298.4,299.5,298.5,299.7,298.5,299.9z M313.6,209.1c-2.1-1.7-3.6-3.7-4.5-3.5c-1.4,0.3-3.1,2.1-3.4,3.4
	c-0.2,0.9,1.8,3.3,2.9,3.3C310,212.4,311.3,210.7,313.6,209.1z M261.8,214.3c0.5,0,1,0.1,1.5,0.1c0.9-1.4,2.5-2.8,2.5-4.2
	c0-1.2-1.9-2.3-3-3.5c-1.1,1.2-3,2.2-3.2,3.5C259.4,211.4,261,212.9,261.8,214.3z M282.5,195.4c-2.1-1.7-3.6-3.7-4.5-3.5
	c-1.4,0.3-3.1,2.1-3.4,3.5c-0.2,0.9,1.8,3.2,2.9,3.2C278.9,198.7,280.3,197,282.5,195.4z M353.4,221.6c-2.3-1.7-3.7-3.5-4.7-3.3
	c-1.3,0.2-3,2.1-3.1,3.3c-0.1,1.1,1.8,3.4,2.8,3.4C349.8,225,351.1,223.3,353.4,221.6z M301.9,179.1c-0.5,0-1,0-1.6,0
	c-0.8,1.4-2.4,2.9-2.3,4.3c0.1,1.2,2,2.2,3.1,3.3c1-1.2,2.8-2.3,2.9-3.7C304.2,181.8,302.7,180.4,301.9,179.1z M327.6,188.6
	c0.5,0,1,0,1.5,0c0.8-1.5,2.2-2.9,2.2-4.4c0-1.1-1.9-2.1-2.9-3.2c-1.1,1.3-2.9,2.4-3.2,3.8C325.1,185.8,326.8,187.3,327.6,188.6z
	 M330.8,210.5c0.5,0,1.1,0.1,1.6,0.1c0.9-1.4,2.5-2.8,2.5-4.1c0-1.2-1.9-2.3-2.9-3.5c-1.1,1.1-2.9,2.1-3.1,3.4
	C328.7,207.7,330.1,209.2,330.8,210.5z"/>
</svg>
