<?xml version="1.0" encoding="utf-8"?>
<!-- Generator: Adobe Illustrator 25.4.1, SVG Export Plug-In . SVG Version: 6.00 Build 0)  -->
<svg version="1.1" id="Capa_1" xmlns="http://www.w3.org/2000/svg" xmlns:xlink="http://www.w3.org/1999/xlink" x="0px" y="0px"
	 viewBox="0 0 512 512" style="enable-background:new 0 0 512 512;" xml:space="preserve">
<style type="text/css">
	.st0{fill:#FFFFFF;}
</style>
<path class="st0" d="M126.5,22c11.3-0.1,21.6,7.6,24,19.1c1.2,5.7,2.9,8,9.3,8.4c40.6,2.2,81.2,4.9,121.8,7.6
	c3.5,0.2,7,1.2,10.3,2.4c45.3,17.1,90.6,34.1,135.7,51.6c5.4,2.1,10.5,6.2,14.3,10.7c9.1,10.6,17.1,22.1,26.2,32.7
	c2.5,2.9,7.2,5.2,11.1,5.6c13.6,1.2,23.6,9.8,24.9,22.9c1.3,12.4-7.5,24.1-20.9,26.2c-6.4,1-9.9,3.6-11.8,9.4
	c-0.9,2.7-2.1,5.5-3.7,7.9c-16.8,25.8-19.6,54.2-15.1,83.8c1.2,8.1-1.6,11.5-9.2,14c-21,7-41.6,15-62.5,22.1
	c-5.5,1.9-7.4,4.6-7.9,10.3c-2.5,30.1-5.5,60.1-8.6,90.1c-0.3,3.1-2.6,6-3.9,9c-2.5-2.2-5.6-4-7.3-6.8
	c-13.8-22.4-27.4-44.9-40.9-67.5c-2.5-4.3-4.9-6.5-10.6-5.9c-9.2,0.9-15.7-4-20.8-11.9c-2-3.1-6.4-6.1-10-6.6
	c-9.3-1.1-18.9-1.3-28.3-0.6c-8.1,0.6-12.7-2.8-16.1-9.6c-7.1-14.2-15.1-28-21.7-42.4c-3.4-7.4-7.4-10.4-15.8-10.9
	c-42.6-2.6-85.1-6-127.6-9.5c-3.4-0.3-7.8-3.3-9.4-6.3c-14.1-26.3-27.8-52.8-41.3-79.5c-1.5-3-1.6-7.6-0.6-10.9
	c7.4-24.8,15.1-49.6,23.3-74.2c1.4-4.2,4.6-8.6,8.2-11.3C59,89,76.7,76.2,94.6,63.8c5.8-4.1,8.5-8,7.8-15.7
	C101.1,33.6,112.3,22.2,126.5,22z M134.8,75.1c0.1,0.6,0.1,1.3,0.2,1.9c7.8,41.7,15.5,83.5,23.8,125.1c0.5,2.7,6.3,5.3,10.1,6.2
	c2.5,0.6,6.9-1.2,8.4-3.4c18.3-26.8,36.4-53.8,54.3-80.9c1.3-2,1.8-5.3,1.3-7.6c-1.3-6.1-3.1-12.2-5.3-18.1c-0.9-2.3-3-4.8-5.1-5.9
	C200,82.1,177.5,71.9,155,61.8C149.1,59.1,134.9,68.7,134.8,75.1z M426.1,121.9c-0.5-0.9-1-1.7-1.5-2.6c-13.5-1.1-27.1-2.3-40.6-3.4
	c-35.6-2.9-71.2-5.8-106.8-8.8c-5.4-0.5-10.4,0.1-11,6.2c-0.4,3.3,1.1,7.8,3.3,10.4c16.8,19.8,34.1,39.1,51,58.9
	c4.7,5.6,8.6,9.9,16.9,5.6c2.8-1.5,8-0.5,11.2,1.1c5.2,2.5,8.1,0.7,11.7-2.9c13.2-13.4,26.7-26.5,40.2-39.7
	C408.9,138.3,417.5,130.1,426.1,121.9z M268.2,221c-9.4,1.2-16.8,2.1-24.2,3.1c-16.8,2.1-33.5,4.7-50.3,6.2
	c-7.8,0.7-8.3,6.2-9.2,11.3c-0.5,2.8,0.1,7.2,1.9,8.9c31.7,28.4,63.6,56.5,95.8,84.4c1.8,1.5,6,1.7,8.3,0.7c1.7-0.8,3.2-4.8,2.8-6.9
	c-6.8-34-13.8-67.9-21-101.8C271.7,224.4,269.2,222.4,268.2,221z M128.7,72.8c-5.7-1.3-10.2-2.9-13.1,4.2
	c-9.8,24.4-20.2,48.5-30.1,72.8c-1,2.4,0,5.8,0.6,8.6c1.1,4.8,2.7,9.6,4.2,14.4c0.8,2.6,0.8,6.2,2.5,7.5
	c16.1,12.1,32.4,23.8,49.1,35.9c4.5-5.2,13.1-5.5,11.1-15.5C144.6,158.3,136.9,115.9,128.7,72.8z M269.8,215.1
	c-6.1-30-11.7-58.3-17.9-86.5c-0.6-2.5-5.1-5.3-8.1-5.7c-2.9-0.4-7.6,1-9.1,3.2c-18.4,26.8-36.1,54-54.5,80.7
	c-5.2,7.5,2,10.5,4.2,15c1,2,5.6,3.6,8.3,3.3c13.3-1.2,26.5-3,39.7-4.7C244.4,218.8,256.5,217,269.8,215.1z M72.5,275.4
	c0.1,0.6,0.2,1.3,0.2,1.9c4.4,0.5,8.7,1.2,13.1,1.6c37,2.7,74.1,5.2,111.1,8.3c3.9,0.3,8.8,3.7,10.8,7.1c5.5,9.1,9.7,19.1,14.6,28.6
	c13.2,26,13.2,26,41.9,26.5c2.9,0,6,0.6,8.8,0c2.8-0.6,6.8-1.8,7.5-3.7c0.7-1.9-1.4-5.8-3.4-7.6c-31.1-27.7-62.3-55.2-93.8-82.5
	c-2.2-1.9-7.2-2.7-9.7-1.5c-11.5,5.3-21.3,3.6-30.5-4.8c-2-1.8-6-3.6-8-2.7C114.1,255.8,93.4,265.6,72.5,275.4z M17.4,189.4
	c14.2-5.3,25.9-9.3,37.2-14c2.2-0.9,3.9-4.5,4.6-7.2c1.8-7.7,5.7-13.5,14-13.7c5.7-0.1,7.8-2.8,9.7-7.4
	c9.7-23.6,19.8-47.1,29.4-70.9c1.1-2.7-0.7-6.5-1.1-9.8c-3.1,0.5-6.8,0-9.1,1.6c-18.6,13-37,26.4-55.3,39.8c-2,1.5-4.6,3.3-5.3,5.5
	C33.5,137.8,25.9,162.4,17.4,189.4z M393.8,269.8c-23.6,22.3-48.3,45.7-72.8,69.3c-1.5,1.4-1.8,5.6-0.8,7.4c1,1.8,4.5,3.3,6.8,3.1
	c18.3-1.6,36.5-3.4,53.9-10.9c19.9-8.5,40.6-14.9,61.2-22.2C425.9,300.7,410.4,285.7,393.8,269.8z M139.3,218.4
	c-15-10.9-30-21.8-45-32.7c-9.5-6.9-19.9-2.7-21.7,8.7c-2.6,16.3-5.3,32.6-7.8,49c-1.6,10.6-3,21.2-4.8,34
	c22.8-10.5,43-20.2,63.4-29.2c8.6-3.8,16.9-6.8,13.8-19C136.5,226.4,138.3,222.9,139.3,218.4z M393.5,262.7
	c-12.4-11.6-24.2-22.8-36.1-33.7c-1.2-1.1-3.5-2.2-5-1.9c-9.3,2.1-17,4.2-19.8,16.4c-6.4,28.1-15.2,55.6-22.7,83.5
	c-0.8,2.8,0.8,6.3,1.3,9.4c2-0.5,4.6-0.3,5.9-1.5C341.9,311.6,366.7,288.1,393.5,262.7z M433,122.5c-3.3,3-5.7,5-8,7.3
	c-20.1,19.8-40.3,39.6-60.2,59.6c-2.4,2.4-3.3,6.2-4.9,9.3c3.7,0.8,7.7,2.7,11.2,2.1c25.6-4.1,51.2-8.6,76.7-13.3
	c2.3-0.4,5.3-2.3,6.3-4.3c3.4-6.4,6-13.2,9.6-21.3C454.4,150,444.1,136.8,433,122.5z M274.3,220.3c7.6,36.6,14.8,71.8,22.2,107
	c0.5,2.3,3,4.2,4.6,6.2c1.7-2,4.2-3.7,4.8-6c8.9-30.8,17.7-61.7,26-92.6c0.7-2.5-1.3-6.2-2.9-8.8c-1.8-3-4.3-5.6-6.9-8
	c-1.7-1.5-4.1-3.6-6-3.4C302.6,216.2,289.2,218.2,274.3,220.3z M396.7,259.6c19.6-18.6,39-36.8,58.1-55.3c1.8-1.7,3.1-6.7,2-7.9
	c-1.9-2.1-5.9-3.7-8.7-3.2c-26.6,4.2-53.1,8.8-79.7,13.5c-7.1,1.3-11.6,13.7-6.6,18.8C373,236.9,384.5,247.8,396.7,259.6z
	 M276.1,214.6c14.4-2,27-3.5,39.5-5.6c5.3-0.9,10.7-14.8,7.3-18.8c-19.5-22.6-39.2-45.1-59.1-67.4c-1.3-1.4-4.6-2-6.6-1.5
	c-1.1,0.3-2.4,3.7-2.1,5.4c5.5,27.6,11.1,55.2,17,82.8C272.6,211.8,275.1,213.5,276.1,214.6z M401.2,111.8c0.1-0.6,0.3-1.3,0.4-1.9
	c-3.1-1.4-6.1-2.9-9.2-4.1c-28.5-10.8-57.1-21.5-85.6-32.3c-23.3-8.8-23.1-8.6-38.8,10.4c-4.1,4.9-2,8.5,0.2,12
	c1.5,2.5,4.7,5.5,7.3,5.7c30.7,2.9,61.5,5.4,92.3,7.8C378.9,110.4,390.1,111,401.2,111.8z M366.1,348.6c-13,1.5-24.5,2.9-36.1,4.2
	c-9.1,1-16.6,15.7-11.8,23.7c11.3,18.9,22.8,37.8,34.2,56.6c1,1.7,2.7,3.1,5.2,5.9C360.6,408.2,363.3,379.3,366.1,348.6z
	 M16.6,193.4c13.4,25.8,26.1,50.2,38.8,74.7c6.5-26.7,10.9-52.8,15-79c0.8-4.9-9.3-12.1-14.2-10.4C43.4,183.2,30.7,188.1,16.6,193.4
	z M443.7,305.6c0-7.9,0.9-16.4-0.2-24.6c-1.6-12,0.2-22.9,6-33.6c6-11.1,10.9-22.8,16.1-34.3c0.9-2,0.3-4.6,0.4-6.9
	c-2.4,0.7-5.5,0.7-7.2,2.3c-16.2,15-32.1,30.4-48.3,45.4c-3.5,3.2-7.8,5.6-12.3,8.9C415.1,278.7,429.4,292.2,443.7,305.6z
	 M157.9,56.9c-0.2,0.7-0.4,1.4-0.7,2.1c24.1,11,48.1,21.9,72.4,32.9c7.5-9.4,16.4-12.3,27.3-8.7c1.5,0.5,4.1,0.1,5.1-1
	c5-5.2,9.7-10.7,16-17.8C236.3,61.8,197.1,59.4,157.9,56.9z M496.7,184.7c-0.2-9.3-8.4-17.1-17.7-16.9c-9.3,0.2-17.3,8.4-17,17.6
	c0.2,9.3,8.5,17.2,17.7,17C488.9,202.1,496.9,193.8,496.7,184.7z M127,64c9.1-0.2,16.4-7.9,16.4-17.2c-0.1-9.2-7.6-16.9-16.6-16.9
	c-9.5,0-17.3,8.2-17,17.7C110.1,56.7,118,64.2,127,64z M178.1,232.2c0-9.1-7.5-16.8-16.5-16.9c-9-0.2-16.7,7.3-16.9,16.5
	c-0.2,9.6,7.5,17.6,16.9,17.4C170.7,249,178.1,241.3,178.1,232.2z M341.1,224.1c8.5,0,15.3-7,15.3-15.6c-0.1-8.6-7.1-15.5-15.6-15.3
	c-8.1,0.2-14.7,7-14.9,15.1C325.8,216.8,332.8,224.1,341.1,224.1z M315.3,354.8c0-8.3-6.3-15-14.4-15.3c-8.5-0.3-15.5,6.5-15.5,15.2
	c0,8.3,6.3,15,14.4,15.3C308.2,370.3,315.3,363.4,315.3,354.8z M248.4,117.1c8.1,0,14.5-6.7,14.5-15c0-8.4-6.4-14.6-14.8-14.5
	c-8.2,0.1-14.8,6.8-14.7,14.8C233.4,110.4,240.4,117.1,248.4,117.1z M76,183.3c3.9-6.7,8.1-10.7,7.6-14c-0.6-3.4-5.8-5.9-9-8.8
	c-2.9,3.3-8,6.4-8.2,9.8C66.2,173.5,71.1,177.1,76,183.3z"/>
</svg>
